<svg width="780" height="539" viewBox="0 0 780 539" fill="none" xmlns="http://www.w3.org/2000/svg">
<path d="M331.968 466.504C427.871 466.504 505.615 460.685 505.615 453.506C505.615 446.328 427.871 440.509 331.968 440.509C236.065 440.509 158.321 446.328 158.321 453.506C158.321 460.685 236.065 466.504 331.968 466.504Z" fill="#E6E7E8"/>
<path d="M621.679 331.485H498.205V423.721H621.679V331.485Z" fill="white"/>
<path d="M621.679 424.633H498.205C497.947 424.633 497.699 424.538 497.516 424.371C497.333 424.203 497.23 423.976 497.23 423.739V331.485C497.23 331.248 497.333 331.021 497.516 330.853C497.699 330.685 497.947 330.591 498.205 330.591H621.679C621.937 330.596 622.182 330.691 622.363 330.858C622.545 331.025 622.649 331.249 622.654 331.485V423.739C622.649 423.974 622.545 424.199 622.363 424.366C622.182 424.532 621.937 424.628 621.679 424.633V424.633ZM499.18 422.845H620.704V332.379H499.2L499.18 422.845Z" fill="#D1D3D4"/>
<path d="M621.679 344.233H498.205C497.947 344.233 497.699 344.138 497.516 343.971C497.333 343.803 497.23 343.576 497.23 343.339C497.23 343.101 497.333 342.874 497.516 342.706C497.699 342.539 497.947 342.445 498.205 342.445H621.679C621.938 342.445 622.186 342.539 622.369 342.706C622.552 342.874 622.654 343.101 622.654 343.339C622.649 343.574 622.545 343.799 622.363 343.966C622.182 344.132 621.937 344.228 621.679 344.233V344.233Z" fill="#D1D3D4"/>
<path d="M281.463 159.153C278.8 159.317 276.143 158.762 273.821 157.556C271.498 156.35 269.612 154.547 268.396 152.368C267.18 150.19 266.688 147.732 266.979 145.3C267.27 142.868 268.333 140.567 270.036 138.682C262.587 135.536 258.648 127.455 259.194 119.963C259.74 112.472 264.049 105.661 269.431 99.9037C273.858 95.2016 279.415 90.9644 286.065 89.8023C287.324 89.6873 288.551 89.3727 289.692 88.8726C290.59 88.2934 291.369 87.5731 291.993 86.745C296.849 81.0596 302.835 75.8391 310.323 73.5506C317.811 71.2622 326.976 72.5673 331.987 78.1633C334.493 76.1694 337.599 74.9198 340.896 74.58C344.192 74.2402 347.524 74.8261 350.449 76.2602C353.375 77.6943 355.756 79.9091 357.279 82.6113C358.801 85.3136 359.393 88.3761 358.975 91.3934C364.251 92.1076 369.198 94.1778 373.243 97.3643C377.288 100.551 380.265 104.723 381.829 109.397C384.618 118.801 379.88 129.85 370.422 134.302C369.33 134.821 368.023 135.5 368.062 136.608C368.17 137.277 368.496 137.901 368.998 138.396C372.04 142.383 370.519 148.158 367.048 151.769C363.577 155.381 358.39 157.294 353.398 159.118C354.509 160.138 355.249 161.448 355.518 162.869C355.786 164.29 355.571 165.752 354.9 167.056C353.453 169.666 351.202 171.83 348.426 173.277C337.584 179.696 324.168 177.693 312.019 177.926C300.807 178.14 289.673 171.579 282.243 164.141C280.8 162.729 279.649 160.155 281.463 159.153Z" fill="white"/>
<path d="M325.455 178.945C323.505 178.945 321.555 178.945 319.761 178.945C317.226 178.945 314.574 178.838 312.078 178.945C301.899 179.106 290.628 173.867 281.541 164.874C280.902 164.286 280.399 163.586 280.064 162.814C279.729 162.043 279.568 161.217 279.591 160.387C279.58 160.322 279.58 160.255 279.591 160.19C276.966 160.075 274.424 159.309 272.235 157.975C270.046 156.641 268.292 154.788 267.16 152.613C266.028 150.438 265.56 148.022 265.806 145.623C266.051 143.224 267.001 140.93 268.554 138.986C261.826 135.589 257.634 127.919 258.219 119.91C258.706 113.062 262.236 106.143 268.69 99.3137C274.306 93.378 279.922 89.981 285.889 88.9262L286.552 88.8189C287.491 88.7851 288.404 88.5347 289.209 88.0909C290.013 87.6471 290.682 87.0243 291.154 86.2802C297.277 79.1287 303.42 74.7306 310.011 72.7103C318.142 70.2252 327.054 71.9594 332.104 76.9118C334.762 75.0303 337.958 73.8953 341.305 73.6442C344.652 73.393 348.006 74.0365 350.963 75.4967C353.919 76.957 356.35 79.1714 357.963 81.872C359.575 84.5727 360.299 87.6439 360.048 90.7141C365.317 91.587 370.223 93.7691 374.232 97.0226C378.241 100.276 381.2 104.476 382.785 109.165C385.749 119.159 380.503 130.619 370.87 135.107C369.895 135.554 369.018 136.054 369.037 136.591C369.134 136.962 369.328 137.305 369.603 137.592L369.778 137.824C373.249 142.33 371.28 148.641 367.672 152.288C364.104 155.499 359.801 157.942 355.075 159.439C355.929 160.611 356.445 161.962 356.575 163.366C356.704 164.769 356.443 166.181 355.816 167.467C354.324 170.223 351.968 172.508 349.05 174.028C341.815 178.319 333.625 178.945 325.455 178.945ZM314.242 177.014C316.095 177.014 317.967 177.014 319.8 177.014C329.55 177.193 339.592 177.389 347.919 172.455C350.543 171.115 352.669 169.085 354.022 166.627C354.628 165.488 354.831 164.204 354.603 162.955C354.376 161.705 353.73 160.551 352.755 159.654C352.627 159.554 352.53 159.427 352.472 159.283C352.414 159.138 352.397 158.983 352.423 158.831C352.451 158.678 352.521 158.533 352.627 158.411C352.732 158.289 352.871 158.193 353.028 158.134C357.591 156.454 362.778 154.559 366.229 150.983C369.33 147.854 371.065 142.49 368.179 138.736L368.004 138.539C367.472 137.977 367.145 137.277 367.068 136.537C367.068 134.749 368.92 133.891 369.954 133.408C378.807 129.225 383.604 118.748 380.874 109.522C379.331 105.039 376.443 101.044 372.539 97.9961C368.635 94.948 363.873 92.9695 358.8 92.2874C358.548 92.252 358.321 92.1273 358.168 91.9401C358.014 91.7529 357.947 91.5181 357.981 91.2862C358.364 88.4539 357.805 85.5816 356.376 83.0459C354.948 80.5101 352.717 78.4293 349.976 77.0763C347.236 75.7232 344.113 75.1611 341.018 75.4635C337.922 75.766 334.999 76.9189 332.631 78.7712C332.533 78.8502 332.419 78.91 332.294 78.9469C332.17 78.9838 332.039 78.997 331.909 78.9857C331.781 78.9769 331.655 78.9437 331.541 78.8884C331.427 78.833 331.327 78.7565 331.246 78.6639C326.859 73.7651 318.376 71.9773 310.654 74.3551C304.434 76.2503 298.584 80.4696 292.773 87.2456C292.085 88.1627 291.219 88.9565 290.218 89.5877C289.189 90.0902 288.063 90.4058 286.903 90.5174L286.279 90.6247C280.761 91.608 275.496 94.8083 270.172 100.422C264.01 106.948 260.656 113.527 260.188 119.963C259.623 127.687 263.835 135.017 270.465 137.842C270.6 137.9 270.719 137.984 270.813 138.089C270.908 138.194 270.975 138.318 271.011 138.45C271.042 138.585 271.039 138.724 271.002 138.857C270.965 138.991 270.894 139.114 270.796 139.219C269.188 140.961 268.179 143.1 267.894 145.368C267.609 147.635 268.062 149.929 269.196 151.961C270.33 153.992 272.095 155.671 274.267 156.786C276.439 157.9 278.923 158.4 281.404 158.224C281.627 158.203 281.85 158.254 282.035 158.368C282.22 158.483 282.356 158.653 282.418 158.849C282.485 159.041 282.478 159.248 282.401 159.436C282.323 159.624 282.178 159.783 281.989 159.886C281.869 159.948 281.767 160.035 281.692 160.141C281.617 160.247 281.572 160.368 281.56 160.494C281.594 161.635 282.111 162.719 283.003 163.516C291.622 172.133 302.503 177.175 312.039 176.996L314.242 177.014Z" fill="#231F20"/>
<path d="M420.732 420.985C425.197 420.985 458.484 424.293 474.065 431.391C489.645 438.488 493.019 439.043 489.86 448.626C486.701 458.209 459.264 460.569 438.38 456.957C424.928 454.422 411.954 450.097 399.867 444.12L420.732 420.985Z" fill="white"/>
<path d="M458.074 459.514C451.411 459.49 444.765 458.891 438.223 457.726C424.68 455.171 411.615 450.823 399.438 444.817C399.325 444.755 399.227 444.672 399.15 444.574C399.073 444.475 399.018 444.364 398.989 444.245C398.967 444.129 398.973 444.009 399.006 443.895C399.04 443.78 399.101 443.674 399.184 443.584L420.049 420.449C420.126 420.354 420.226 420.277 420.341 420.224C420.457 420.172 420.584 420.144 420.712 420.145H420.907C426.348 420.145 458.854 423.542 474.454 430.64L477.964 432.231C490.464 437.845 493.837 439.382 490.717 448.858C488.748 454.865 475.917 459.514 458.074 459.514ZM401.251 443.87C412.994 449.553 425.552 453.688 438.555 456.153C459.517 459.728 486.115 457.189 489.021 448.393C491.692 440.241 489.762 439.365 477.184 433.715L473.674 432.124C458.796 425.348 426.972 421.897 421.141 421.79L401.251 443.87Z" fill="#231F20"/>
<path d="M425.198 420.896C428.142 421.557 430.705 423.215 432.372 425.536C434.039 427.857 434.687 430.67 434.187 433.411C432.725 443.584 409.266 444.013 407.921 444.138C406.575 444.263 425.198 420.896 425.198 420.896Z" fill="white"/>
<path d="M407.921 444.71C407.746 444.705 407.576 444.66 407.426 444.579C407.276 444.498 407.151 444.383 407.063 444.245C406.77 443.709 406.302 442.887 424.476 420.342C424.58 420.21 424.726 420.111 424.893 420.057C425.06 420.002 425.241 419.996 425.412 420.038C425.51 420.038 436.625 422.594 435.162 433.375C433.68 443.727 412.308 444.639 408.038 444.71H407.921ZM425.471 421.772C419.757 428.923 411.255 439.651 409.13 443.048C414.473 442.815 432.042 441.438 433.232 433.161C433.69 430.738 433.16 428.246 431.743 426.159C430.326 424.072 428.121 422.536 425.548 421.844L425.471 421.772Z" fill="#231F20"/>
<path d="M251.335 444.192C250.653 444.514 244.276 452.112 216.469 455.151C188.662 458.191 178.347 463.679 172.146 450.288C165.945 436.897 170.196 428.244 183.846 424.418C197.496 420.592 235.306 417.428 242.716 423.828C250.126 430.229 251.335 444.192 251.335 444.192Z" fill="white"/>
<path d="M185.874 459.692C178.99 459.692 174.564 457.583 171.327 450.61C168.09 443.637 167.602 437.648 169.962 433.018C172.146 428.727 176.748 425.562 183.612 423.649C196.443 420.073 235.423 416.391 243.34 423.238C250.926 429.782 252.135 443.548 252.193 444.12C252.202 444.272 252.167 444.423 252.092 444.558C252.017 444.693 251.904 444.807 251.764 444.889L251.491 445.104C243.477 451.79 228.091 454.704 216.547 455.956C210.561 456.617 205.413 457.386 200.947 458.066C195.974 458.948 190.935 459.492 185.874 459.692V459.692ZM221.871 420.967C208.513 420.967 192.328 422.916 184.177 425.205C177.781 426.993 173.53 429.853 171.58 433.715C169.435 437.898 169.903 443.369 172.965 449.967C177.547 459.889 184.314 458.906 200.616 456.456C205.179 455.777 210.366 455.008 216.372 454.347C227.643 453.113 242.677 450.288 250.341 443.888C250.068 441.546 248.391 429.978 242.092 424.472C239.284 421.933 231.27 420.967 221.871 420.967Z" fill="#231F20"/>
<path d="M260.208 438.721C260.208 438.721 247.592 448.375 239.187 447.231C230.783 446.087 219.161 441.867 223.841 433.554C228.521 425.24 258.648 420.234 258.648 420.234L260.208 438.721Z" fill="white"/>
<path d="M240.63 448.143C240.101 448.143 239.573 448.107 239.051 448.036C232.752 447.177 225.147 444.71 222.71 440.33C222.108 439.208 221.823 437.965 221.881 436.715C221.939 435.466 222.338 434.25 223.041 433.178C227.877 424.561 257.244 419.644 258.492 419.43C258.615 419.41 258.741 419.415 258.862 419.443C258.982 419.47 259.096 419.521 259.194 419.591C259.293 419.662 259.375 419.752 259.435 419.853C259.495 419.954 259.533 420.066 259.545 420.181L261.105 438.649C261.116 438.78 261.093 438.911 261.039 439.032C260.985 439.153 260.901 439.261 260.793 439.347C260.286 439.722 249.191 448.143 240.63 448.143ZM257.849 421.218C252.681 422.147 228.599 426.849 224.699 433.929C224.123 434.77 223.789 435.731 223.728 436.722C223.667 437.713 223.88 438.702 224.348 439.597C226.493 443.405 233.513 445.622 239.382 446.427C246.539 447.41 257.283 439.865 259.35 438.363L257.849 421.218Z" fill="#231F20"/>
<path d="M411.762 357.624C411.762 357.624 398.463 405.181 349.927 414.263C301.392 423.345 276.276 420.95 259.077 390.914C241.878 360.878 253.227 342.498 253.227 342.498L406.399 339.709L411.762 357.624Z" fill="#231F20"/>
<path d="M309.894 419.823C286.494 419.823 270.251 412.35 258.2 391.325C240.962 361.199 251.94 342.82 252.35 342.051C252.435 341.916 252.557 341.804 252.704 341.726C252.851 341.647 253.018 341.605 253.188 341.604L406.361 338.815C406.581 338.805 406.799 338.865 406.977 338.986C407.155 339.107 407.282 339.28 407.336 339.477L412.64 357.355C412.679 357.508 412.679 357.667 412.64 357.82C412.503 358.303 398.638 406.092 350.044 415.121C334.698 418.035 321.418 419.823 309.894 419.823ZM253.871 343.374C252.35 346.324 244.667 363.81 259.935 390.502C277.388 420.896 302.835 422.183 349.635 413.387C395.324 404.841 409.578 361.128 410.65 357.624L405.6 340.621L253.871 343.374Z" fill="#231F20"/>
<path d="M241.8 358.053C241.8 358.053 216.704 283.678 219.999 237.068C223.295 190.459 242.19 188.796 267.969 186.168C279.415 184.988 340.392 176.71 363.227 201.347C386.061 225.984 426.25 341.372 426.25 341.372L241.8 358.053Z" fill="#838383"/>
<path d="M332.377 186.293L328.477 211.18C328.477 211.18 319.936 224.035 302.835 217.527C285.733 211.019 285.402 199.023 285.402 199.023L293.514 153.039C293.514 153.039 311.551 138.2 319.137 109.844C319.137 109.844 334.249 134.016 356.187 139.451C356.187 139.451 354.724 159.529 350.805 171.972C346.905 184.005 332.65 186.15 332.377 186.293Z" fill="white"/>
<path d="M312 220.244C308.683 220.208 305.408 219.563 302.367 218.349C284.817 211.698 284.349 199.559 284.33 199.04L292.5 152.896C292.54 152.691 292.649 152.504 292.812 152.359C292.988 152.216 310.713 137.377 318.162 109.63C318.216 109.459 318.321 109.306 318.466 109.189C318.611 109.072 318.79 108.995 318.981 108.968C319.172 108.943 319.366 108.971 319.539 109.047C319.713 109.124 319.858 109.245 319.956 109.397C320.112 109.647 335.147 133.319 356.382 138.575C356.602 138.629 356.794 138.751 356.926 138.921C357.057 139.09 357.12 139.297 357.104 139.505C357.104 139.701 355.583 159.833 351.683 172.223C348.465 182.431 338.033 185.935 333.275 187.008L329.375 211.305C329.356 211.424 329.317 211.538 329.258 211.645C327.336 214.235 324.767 216.366 321.765 217.862C318.764 219.358 315.416 220.175 312 220.244V220.244ZM294.45 153.468L286.377 199.166C286.377 199.452 286.962 210.501 303.225 216.705C318.416 222.479 326.625 212.199 327.561 210.858L331.461 186.168C331.479 186.032 331.533 185.903 331.618 185.791C331.703 185.679 331.816 185.587 331.949 185.524C332.128 185.429 332.327 185.368 332.534 185.345C336.726 184.434 346.827 181.269 349.83 171.722C353.262 160.834 354.822 143.813 355.115 140.113C336.785 135.178 323.486 117.854 319.508 112.115C312.098 137.288 296.556 151.501 294.45 153.468Z" fill="#231F20"/>
<path d="M304.025 153.736C303.806 151.41 302.765 149.213 301.061 147.479C299.403 145.92 297.464 144.638 295.328 143.688C294.22 143.06 292.975 142.664 291.681 142.526C290.766 142.534 289.86 142.698 289.01 143.009C286.933 143.616 285.162 144.884 284.018 146.585C283.264 148.027 282.909 149.617 282.984 151.215C282.907 152.944 283.077 154.676 283.491 156.364C283.949 158.05 284.77 159.636 285.905 161.027C287.04 162.419 288.466 163.588 290.101 164.468C291.736 165.347 293.545 165.918 295.424 166.148C297.303 166.377 299.212 166.26 301.041 165.804" fill="white"/>
<path d="M297.336 167.074C293.943 167.076 290.645 166.04 287.968 164.129C285.29 162.218 283.385 159.542 282.555 156.525C282.103 154.769 281.919 152.964 282.009 151.162C281.94 149.42 282.335 147.69 283.16 146.12C284.402 144.251 286.331 142.85 288.6 142.169C289.57 141.823 290.601 141.641 291.642 141.632C293.087 141.772 294.479 142.205 295.718 142.902C297.947 143.899 299.972 145.242 301.704 146.871C303.554 148.754 304.683 151.139 304.922 153.665C304.938 153.901 304.853 154.134 304.686 154.314C304.519 154.494 304.281 154.607 304.025 154.63C303.768 154.641 303.517 154.562 303.321 154.409C303.126 154.256 303.001 154.041 302.972 153.808C302.78 151.68 301.843 149.667 300.3 148.069C298.715 146.593 296.861 145.383 294.821 144.493C293.848 143.921 292.749 143.555 291.603 143.42C290.813 143.426 290.032 143.572 289.302 143.849C287.46 144.371 285.874 145.464 284.817 146.942C284.155 148.263 283.847 149.71 283.92 151.162C283.827 152.813 283.991 154.469 284.408 156.078C284.837 157.643 285.601 159.115 286.655 160.406C287.71 161.698 289.034 162.785 290.551 163.604C292.068 164.422 293.747 164.956 295.491 165.174C297.235 165.392 299.009 165.29 300.71 164.874C300.958 164.814 301.222 164.846 301.445 164.963C301.667 165.08 301.831 165.273 301.899 165.5C301.931 165.614 301.939 165.733 301.921 165.849C301.903 165.966 301.86 166.078 301.795 166.179C301.73 166.28 301.643 166.369 301.541 166.44C301.438 166.51 301.321 166.562 301.197 166.591C299.939 166.909 298.641 167.072 297.336 167.074V167.074Z" fill="#231F20"/>
<path d="M328.536 146.638C328.536 146.638 336.199 160.494 333.684 162.479C331.168 164.463 325.123 162.282 325.123 162.282" fill="white"/>
<path d="M330.545 164.213C328.541 164.156 326.563 163.788 324.695 163.122C324.575 163.079 324.467 163.015 324.375 162.933C324.283 162.851 324.209 162.753 324.159 162.645C324.108 162.537 324.081 162.421 324.079 162.304C324.077 162.186 324.101 162.069 324.149 161.96C324.248 161.743 324.436 161.569 324.672 161.476C324.909 161.382 325.175 161.377 325.416 161.46C326.84 161.96 331.266 163.122 332.963 161.799C333.996 161.013 331.422 153.969 327.6 147.032C327.54 146.928 327.504 146.814 327.493 146.696C327.482 146.579 327.497 146.461 327.537 146.349C327.577 146.237 327.641 146.134 327.726 146.046C327.81 145.957 327.913 145.885 328.029 145.834C328.26 145.732 328.525 145.717 328.768 145.79C329.012 145.863 329.215 146.02 329.336 146.227C331.734 150.589 337.038 160.959 334.25 163.158C333.181 163.886 331.874 164.258 330.545 164.213V164.213Z" fill="#231F20"/>
<path d="M319.016 143.506C319.163 141.853 318.238 140.435 316.95 140.339C315.662 140.242 314.499 141.505 314.352 143.158C314.205 144.811 315.13 146.23 316.418 146.326C317.706 146.422 318.869 145.16 319.016 143.506Z" fill="#231F20"/>
<path d="M343.175 146.567C343.309 144.913 342.373 143.5 341.085 143.412C339.796 143.324 338.642 144.594 338.508 146.248C338.373 147.902 339.309 149.315 340.598 149.403C341.887 149.491 343.04 148.221 343.175 146.567Z" fill="#231F20"/>
<path d="M326.547 175.298C323.565 175.346 320.615 174.732 317.947 173.51C313.287 171.275 310.303 167.002 309.075 160.816C309.053 160.7 309.056 160.581 309.084 160.465C309.112 160.35 309.165 160.241 309.239 160.145C309.313 160.048 309.408 159.966 309.517 159.904C309.626 159.841 309.747 159.799 309.874 159.779C310.127 159.742 310.386 159.796 310.596 159.929C310.807 160.062 310.954 160.264 311.006 160.494C312.098 166.108 314.75 169.952 318.806 171.919C326.996 175.852 338.52 171.096 338.637 171.043C338.872 170.946 339.14 170.939 339.381 171.022C339.622 171.106 339.818 171.274 339.924 171.49C339.979 171.596 340.01 171.712 340.015 171.829C340.02 171.947 339.999 172.064 339.954 172.175C339.908 172.285 339.839 172.385 339.75 172.47C339.661 172.555 339.555 172.623 339.437 172.67C335.364 174.296 330.988 175.189 326.547 175.298V175.298Z" fill="#231F20"/>
<path d="M332.378 186.293C332.378 186.293 314.828 187.616 305.78 181.072C305.78 181.072 313.482 203.421 329.667 203.349L332.378 186.293Z" fill="#231F20"/>
<path d="M329.55 204.243C312.897 204.243 305.136 182.27 304.804 181.341C304.747 181.157 304.754 180.962 304.824 180.783C304.894 180.603 305.023 180.448 305.194 180.339C305.359 180.222 305.561 180.158 305.77 180.158C305.978 180.158 306.181 180.222 306.345 180.339C315.062 186.579 332.085 185.381 332.26 185.363C332.406 185.354 332.551 185.375 332.687 185.423C332.822 185.472 332.944 185.549 333.043 185.646C333.142 185.744 333.216 185.861 333.26 185.988C333.303 186.116 333.315 186.25 333.294 186.382L330.583 203.456C330.542 203.679 330.415 203.88 330.225 204.025C330.036 204.169 329.796 204.246 329.55 204.243V204.243ZM307.71 183.325C310.187 188.921 317.206 201.883 328.789 202.437L331.188 187.258C327.444 187.401 315.9 187.509 307.749 183.325H307.71Z" fill="#231F20"/>
<path d="M248.644 190.316C212.628 186.204 178.815 326.39 198.471 339.709C229.125 360.502 322.686 332.111 322.686 332.111L313.326 295.12C313.326 295.12 245.797 298.07 244.569 285.358C243.34 272.647 282.301 213.057 276.841 204.368C271.381 195.679 248.644 190.316 248.644 190.316Z" fill="#838383"/>
<path d="M374.4 296.157C374.185 296.163 373.976 296.094 373.813 295.965C373.651 295.836 373.547 295.656 373.522 295.46C368.881 265.567 358.702 215.507 355.407 212.575C355.247 212.421 355.157 212.216 355.158 212.003C355.159 211.791 355.25 211.586 355.411 211.434C355.573 211.281 355.793 211.191 356.025 211.184C356.256 211.177 356.482 211.252 356.655 211.395C360.886 215.167 371.767 272.593 375.277 295.227C375.311 295.443 375.25 295.662 375.107 295.836C374.964 296.011 374.752 296.126 374.517 296.157H374.4Z" fill="#231F20"/>
<path d="M339.944 366.885L277.777 350.919L391.95 331.235L453.746 354.978L339.944 366.885Z" fill="white"/>
<path d="M339.944 367.832C339.86 367.849 339.773 367.849 339.69 367.832L277.524 351.741C277.265 351.741 277.017 351.647 276.835 351.48C276.652 351.312 276.549 351.085 276.549 350.848C276.549 350.61 276.652 350.383 276.835 350.215C277.017 350.048 277.265 349.954 277.524 349.954L391.696 330.287C391.874 330.234 392.065 330.234 392.242 330.287L454.038 354.03C454.236 354.107 454.4 354.241 454.506 354.413C454.612 354.584 454.653 354.783 454.623 354.977C454.594 355.175 454.494 355.358 454.338 355.497C454.183 355.636 453.981 355.724 453.765 355.746L340.06 367.832H339.944ZM282.067 351.151L340.021 366.044L449.923 354.548L391.833 332.236L282.067 351.151Z" fill="#231F20"/>
<path d="M303.264 307.903C316.914 309.28 329.57 310.174 342.264 315.055C349.518 317.848 356.369 321.451 362.661 325.782C365.867 327.868 368.863 330.213 371.612 332.79C373.796 334.971 373.094 337.099 369.428 336.044C365.165 334.82 361.128 333.011 357.455 330.681C366.238 337.251 374.022 344.869 380.601 353.333C381.342 354.298 382.064 355.675 381.186 356.533C380.309 357.391 378.359 356.533 377.286 355.639L358.001 338.869C363.106 342.907 367.448 347.692 370.851 353.029C371.339 353.798 371.807 354.817 371.3 355.514C370.442 356.819 368.258 355.836 367.088 354.745C361.311 349.397 356.058 343.594 351.39 337.403L361.803 351.706C361.704 351.97 361.55 352.213 361.348 352.422C361.146 352.63 360.902 352.8 360.628 352.921C360.354 353.043 360.057 353.113 359.753 353.129C359.449 353.144 359.145 353.104 358.859 353.011C357.712 352.577 356.719 351.859 355.992 350.937L343.376 337.653L350.825 347.057C351.995 348.523 353.165 350.633 351.819 352.01C350.474 353.386 347.432 352.01 345.716 350.615C338.813 344.84 331.233 339.786 323.115 335.544C320.171 333.952 317.655 331.789 314.399 330.877C309.719 329.554 303.869 329.733 298.994 329.232" fill="white"/>
<path d="M380.25 357.749C378.947 357.614 377.735 357.071 376.818 356.211L370.578 350.848C370.987 351.438 371.397 352.045 371.767 352.635C372.162 353.101 372.412 353.656 372.491 354.242C372.57 354.827 372.475 355.421 372.216 355.961C372.041 356.236 371.799 356.47 371.507 356.644C371.216 356.818 370.884 356.927 370.539 356.962C369.801 356.953 369.074 356.804 368.403 356.524C367.731 356.244 367.131 355.839 366.639 355.335C365.352 354.155 364.104 352.957 362.875 351.759C362.884 351.825 362.884 351.891 362.875 351.956C362.802 352.287 362.652 352.6 362.437 352.874C362.222 353.148 361.946 353.378 361.627 353.547C361.207 353.778 360.738 353.927 360.252 353.986C359.766 354.044 359.272 354.011 358.8 353.887C357.488 353.415 356.351 352.609 355.524 351.563L353.223 349.149C353.51 349.732 353.611 350.377 353.515 351.009C353.418 351.642 353.127 352.237 352.677 352.725C352.396 353.013 352.054 353.246 351.672 353.409C351.29 353.572 350.875 353.661 350.454 353.672C348.418 353.469 346.532 352.592 345.15 351.205C338.316 345.462 330.792 340.447 322.725 336.259C321.73 335.722 320.775 335.114 319.839 334.471C318.135 333.253 316.234 332.287 314.203 331.61C310.803 330.821 307.317 330.39 303.81 330.323C302.133 330.234 300.495 330.144 298.954 330.001C298.72 329.974 298.506 329.863 298.36 329.693C298.213 329.522 298.147 329.305 298.174 329.089C298.187 328.983 298.222 328.881 298.277 328.787C298.333 328.694 298.408 328.612 298.499 328.545C298.59 328.479 298.694 328.429 298.806 328.4C298.917 328.371 299.034 328.362 299.149 328.374C300.67 328.517 302.269 328.607 303.907 328.696C307.559 328.76 311.191 329.21 314.73 330.037C316.928 330.774 318.992 331.81 320.853 333.112C321.75 333.702 322.666 334.274 323.622 334.793C331.8 339.053 339.433 344.138 346.378 349.954C347.433 350.937 348.797 351.593 350.278 351.831C350.46 351.825 350.638 351.786 350.802 351.715C350.966 351.644 351.113 351.544 351.234 351.42C352.287 350.365 350.844 348.309 350.181 347.469L342.732 338.082C342.662 338 342.611 337.907 342.581 337.806C342.551 337.706 342.543 337.601 342.558 337.498C342.572 337.395 342.609 337.296 342.666 337.206C342.722 337.116 342.798 337.037 342.888 336.974C343.052 336.826 343.273 336.744 343.502 336.744C343.732 336.744 343.952 336.826 344.116 336.974L356.752 350.258C357.369 351.049 358.213 351.668 359.19 352.045C359.421 352.105 359.662 352.121 359.9 352.094C360.138 352.066 360.367 351.995 360.574 351.885C360.699 351.825 360.806 351.739 360.887 351.634L350.727 337.635C350.595 337.458 350.546 337.239 350.59 337.028C350.633 336.816 350.767 336.63 350.961 336.509C351.155 336.388 351.393 336.343 351.624 336.383C351.854 336.423 352.058 336.546 352.189 336.724C356.837 342.871 362.056 348.638 367.789 353.959C368.424 354.598 369.29 355.004 370.227 355.103C370.304 355.101 370.379 355.08 370.444 355.042C370.51 355.004 370.562 354.951 370.597 354.888C370.812 354.584 370.598 354.012 370.149 353.225C367.802 349.542 364.994 346.122 361.783 343.035L357.435 339.244C357.294 339.091 357.219 338.896 357.225 338.696C357.23 338.495 357.315 338.303 357.463 338.156C357.611 338.009 357.813 337.917 358.031 337.897C358.248 337.877 358.466 337.93 358.644 338.047C360.184 339.262 361.647 340.532 363.051 341.873L377.949 354.835C378.528 355.438 379.323 355.831 380.191 355.943C380.27 355.946 380.349 355.931 380.42 355.9C380.492 355.869 380.554 355.822 380.601 355.764C381.049 355.335 380.601 354.37 379.957 353.583C373.427 345.181 365.702 337.617 356.986 331.092C356.827 330.953 356.729 330.765 356.71 330.563C356.692 330.362 356.755 330.162 356.888 330.001C357.02 329.84 357.213 329.729 357.429 329.689C357.645 329.65 357.869 329.684 358.059 329.787C361.644 332.075 365.59 333.847 369.759 335.043C371.124 335.436 371.845 335.275 371.982 335.043C372.118 334.811 371.982 334.024 371.026 333.094C368.321 330.549 365.363 328.239 362.193 326.193C355.962 321.908 349.177 318.346 341.991 315.591C330.544 311.211 319.098 310.084 306.891 308.887L303.088 308.493C302.973 308.482 302.861 308.45 302.759 308.399C302.657 308.348 302.567 308.279 302.495 308.196C302.422 308.113 302.368 308.017 302.336 307.915C302.304 307.812 302.295 307.705 302.308 307.599C302.321 307.493 302.356 307.391 302.411 307.297C302.467 307.204 302.542 307.122 302.633 307.055C302.724 306.988 302.828 306.939 302.94 306.91C303.051 306.88 303.168 306.872 303.283 306.884L307.183 307.26C319.449 308.475 331.012 309.62 342.693 314.089C350.015 316.87 356.932 320.473 363.285 324.816C366.545 326.942 369.586 329.336 372.372 331.968C373.776 333.362 374.205 334.882 373.503 335.901C373.093 336.473 372.001 337.331 369.252 336.545C367.665 336.1 366.109 335.569 364.591 334.954C370.826 340.302 376.464 346.207 381.42 352.582C382.765 354.37 382.941 355.818 381.946 356.819C381.734 357.034 381.475 357.207 381.187 357.327C380.898 357.447 380.586 357.511 380.269 357.516L380.25 357.749Z" fill="#231F20"/>
<path d="M453.745 354.978L482.196 285.162L365.995 287.271L339.943 366.885L453.745 354.978Z" fill="white"/>
<path d="M339.943 367.832C339.801 367.834 339.661 367.805 339.533 367.75C339.404 367.694 339.291 367.612 339.202 367.51C339.1 367.398 339.029 367.264 338.995 367.121C338.961 366.978 338.966 366.829 339.007 366.688L365.059 287.075C365.123 286.895 365.244 286.737 365.408 286.622C365.572 286.507 365.77 286.44 365.976 286.431L482.176 284.321C482.336 284.319 482.493 284.352 482.636 284.418C482.778 284.483 482.902 284.579 482.995 284.697C483.08 284.817 483.135 284.954 483.155 285.096C483.175 285.238 483.161 285.383 483.112 285.519L454.662 355.246C454.598 355.404 454.488 355.543 454.343 355.647C454.199 355.751 454.026 355.816 453.843 355.836L340.06 367.832H339.943ZM366.736 288.201L341.386 365.901L453.121 354.209L480.85 286.127L366.736 288.201Z" fill="#231F20"/>
<path d="M447.545 355.621C447.545 355.621 479.076 379.096 468 400.622C456.924 422.147 255.45 446.748 255.45 446.748L246.383 418.607C246.383 418.607 404.43 344.59 447.545 355.621Z" fill="#231F20"/>
<path d="M255.45 447.642C255.24 447.639 255.036 447.576 254.868 447.46C254.7 447.344 254.576 447.183 254.514 446.999L245.447 418.858C245.377 418.66 245.388 418.446 245.478 418.255C245.568 418.065 245.73 417.91 245.934 417.821C246.324 417.624 285.968 399.12 330.389 382.171C390.156 359.376 429.644 350.15 447.74 354.763C447.876 354.797 448.002 354.858 448.11 354.942C453.612 359.228 458.5 364.136 462.657 369.549C471.354 381.027 473.46 391.897 468.741 401.015C457.47 422.72 263.816 446.623 255.587 447.624L255.45 447.642ZM247.533 419.037L256.152 445.711C270.231 443.924 456.515 420.36 466.986 400.21C477.282 380.329 449.436 358.214 447.018 356.408C406.029 346.378 259.35 413.673 247.65 419.072L247.533 419.037Z" fill="#231F20"/>
<path d="M235.95 344.84C235.95 344.84 392.398 402.839 431.184 418.143L408.642 450.074C408.642 450.074 264.186 447.481 222.768 414.209C181.35 380.937 184.1 325.549 235.95 344.84Z" fill="#231F20"/>
<path d="M408.642 451.004C408.291 451.004 372.001 450.306 331.129 445.551C276.139 439.132 239.479 428.834 222.144 414.907C200.46 397.493 185.269 366.92 197.203 349.167C201.103 343.267 211.516 334.775 236.359 344C237.919 344.59 393.256 402.195 431.613 417.302C431.744 417.351 431.861 417.426 431.955 417.522C432.05 417.618 432.119 417.732 432.159 417.857C432.198 417.982 432.208 418.114 432.188 418.243C432.168 418.373 432.118 418.497 432.042 418.607L409.5 450.592C409.408 450.723 409.281 450.83 409.131 450.902C408.98 450.975 408.812 451.009 408.642 451.004ZM216.742 341.73C208.728 341.73 202.585 344.554 198.841 350.097C189.637 363.81 197.301 392.594 223.411 413.566C262.821 445.229 398.385 448.983 408.115 449.198L429.76 418.536C389.707 402.803 237.159 346.235 235.599 345.663C229.643 343.265 223.244 341.93 216.742 341.73Z" fill="#231F20"/>
<path d="M454.35 327.105C454.518 327.93 454.907 328.704 455.481 329.357L458.523 333.523C458.412 333.093 458.199 332.69 457.9 332.343C457.6 331.997 457.221 331.714 456.79 331.516C456.358 331.319 455.885 331.21 455.403 331.199C454.92 331.187 454.441 331.273 453.999 331.449C453.135 331.878 452.417 332.517 451.925 333.297C451.433 334.076 451.186 334.965 451.21 335.865C451.298 337.664 451.761 339.43 452.575 341.068C454.74 346.217 459.634 353.744 466.713 349.846C471.51 347.2 472.836 337.868 473.519 333.219C474.864 324.065 471.802 312.301 458.971 314.089C459.342 318.597 461.175 322.9 464.237 326.443C462.15 324.584 453.706 321.705 454.35 327.105Z" fill="white"/>
<path d="M462.794 351.742C462.01 351.747 461.231 351.626 460.493 351.384C455.871 349.936 452.985 344.483 451.679 341.354C450.828 339.618 450.345 337.749 450.255 335.848C450.223 334.79 450.52 333.747 451.11 332.838C451.7 331.93 452.56 331.194 453.59 330.716C454.067 330.517 454.586 330.413 455.111 330.412L454.682 329.822C454.016 329.054 453.573 328.144 453.395 327.176C453.239 326.466 453.347 325.729 453.7 325.082C454.053 324.434 454.632 323.913 455.345 323.601C457.344 323.035 459.503 323.182 461.39 324.012C459.516 321.01 458.397 317.663 458.114 314.214C458.101 314.008 458.171 313.805 458.311 313.643C458.452 313.482 458.652 313.373 458.874 313.338C460.826 312.947 462.852 312.996 464.778 313.482C466.704 313.968 468.472 314.876 469.931 316.127C474.513 320.275 475.274 327.749 474.435 333.38C473.675 338.529 472.31 347.773 467.201 350.597C465.879 351.353 464.351 351.749 462.794 351.742V351.742ZM455.228 332.075C454.913 332.071 454.601 332.126 454.311 332.236C453.601 332.6 453.015 333.137 452.616 333.786C452.217 334.436 452.021 335.174 452.049 335.919C452.126 337.613 452.563 339.277 453.336 340.818C454.311 343.106 457.002 348.595 461.136 349.882C461.989 350.132 462.893 350.199 463.779 350.079C464.665 349.958 465.508 349.652 466.245 349.185C470.633 346.771 471.959 337.689 472.602 333.327C473.402 327.963 472.758 320.99 468.702 317.236C467.551 316.243 466.166 315.505 464.655 315.08C463.144 314.656 461.546 314.555 459.986 314.787C460.487 318.856 462.224 322.715 464.997 325.925C465.14 326.086 465.209 326.291 465.191 326.497C465.173 326.704 465.068 326.896 464.9 327.033C464.733 327.177 464.514 327.256 464.285 327.256C464.057 327.256 463.837 327.177 463.671 327.033C462.365 325.853 458.055 324.173 456.125 325.031C455.696 325.21 455.15 325.621 455.286 327.015C455.456 327.705 455.789 328.352 456.261 328.911L457.899 331.128C458.328 331.383 458.691 331.722 458.961 332.121C459.23 332.519 459.4 332.968 459.459 333.434C459.48 333.616 459.434 333.8 459.328 333.955C459.222 334.111 459.062 334.229 458.874 334.292C458.687 334.353 458.484 334.355 458.296 334.296C458.108 334.238 457.948 334.123 457.841 333.97L456.632 332.325C456.195 332.132 455.711 332.045 455.228 332.075Z" fill="#231F20"/>
<path d="M410.416 411.528C410.294 411.545 410.169 411.545 410.046 411.528C406.633 410.312 325.981 381.688 307.807 371.479C307.581 371.35 307.42 371.145 307.358 370.907C307.296 370.67 307.338 370.419 307.476 370.21C307.544 370.106 307.634 370.015 307.741 369.943C307.848 369.871 307.969 369.819 308.098 369.791C308.227 369.762 308.361 369.758 308.492 369.778C308.623 369.798 308.748 369.841 308.86 369.906C326.878 380.025 409.929 409.507 410.767 409.793C411.018 409.881 411.22 410.057 411.33 410.281C411.44 410.506 411.448 410.761 411.352 410.991C411.272 411.155 411.14 411.294 410.973 411.389C410.807 411.485 410.613 411.533 410.416 411.528Z" fill="white"/>
<path d="M316.349 294.78C334.129 294.78 348.543 282.269 348.543 266.836C348.543 251.403 334.129 238.892 316.349 238.892C298.568 238.892 284.154 251.403 284.154 266.836C284.154 282.269 298.568 294.78 316.349 294.78Z" fill="#231F20"/>
<path d="M316.348 295.656C298.057 295.656 283.198 282.73 283.198 266.836C283.198 250.942 298.077 237.998 316.348 237.998C334.62 237.998 349.498 250.942 349.498 266.836C349.498 282.73 334.639 295.656 316.348 295.656ZM316.348 239.786C299.13 239.786 285.148 251.925 285.148 266.836C285.148 281.747 299.149 293.869 316.348 293.869C333.547 293.869 347.548 281.747 347.548 266.836C347.548 251.925 333.567 239.786 316.348 239.786Z" fill="#231F20"/>
<path d="M299.364 275.918L291.564 271.735V266.21L299.364 262.027C301.964 260.656 304.564 259.262 307.164 257.843V264.53C305.78 265.316 304.395 266.085 303.011 266.818C301.626 267.551 300.261 268.302 298.857 269.107L303.011 271.216L307.164 273.344V280.102L299.364 275.918Z" fill="white"/>
<path d="M309.367 281.872L318.552 249.834L323.349 251.818L314.125 283.803L309.367 281.872Z" fill="white"/>
<path d="M333.45 262.027L341.25 266.21V271.735L333.45 275.918L325.65 280.102V273.344L329.804 271.216L333.957 269.107C332.573 268.302 331.188 267.533 329.804 266.818C328.419 266.103 327.054 265.316 325.65 264.53V257.843L333.45 262.027Z" fill="white"/>
<path d="M249.6 344.59C249.341 344.604 249.087 344.524 248.893 344.366C248.7 344.209 248.582 343.987 248.566 343.75C248.551 343.513 248.639 343.28 248.811 343.102C248.983 342.924 249.224 342.816 249.483 342.802L296.283 337.6L303.712 303.255L243.75 298.606C243.607 298.598 243.467 298.559 243.342 298.494C243.218 298.429 243.11 298.339 243.028 298.231C242.941 298.125 242.881 298.003 242.854 297.872C242.827 297.742 242.833 297.608 242.872 297.48L267.52 213.343C267.588 213.106 267.755 212.903 267.985 212.779C268.216 212.655 268.49 212.62 268.749 212.682C269.008 212.743 269.229 212.897 269.364 213.108C269.499 213.319 269.538 213.571 269.47 213.808L245.115 296.926L304.921 301.467C305.059 301.481 305.191 301.519 305.312 301.581C305.432 301.642 305.538 301.725 305.623 301.825C305.705 301.926 305.763 302.042 305.793 302.165C305.823 302.288 305.825 302.416 305.799 302.54L297.999 338.494C297.957 338.677 297.853 338.845 297.703 338.973C297.553 339.101 297.364 339.183 297.16 339.209L249.6 344.483V344.59Z" fill="#231F20"/>
<path d="M507.312 101.799H410.085V111.024H507.312V101.799Z" fill="#E6E7E8"/>
<path d="M615.849 101.799H518.622V111.024H615.849V101.799Z" fill="#E6E7E8"/>
<path d="M507.312 117.603H450.236V126.829H507.312V117.603Z" fill="#838383"/>
<path d="M604.988 117.603H518.622V126.829H604.988V117.603Z" fill="#E6E7E8"/>
<path d="M507.312 133.426H435.376V142.651H507.312V133.426Z" fill="#E6E7E8"/>
<path d="M559.182 133.426H518.622V142.651H559.182V133.426Z" fill="#E6E7E8"/>
<path d="M507.332 149.231H465.367V158.456H507.332V149.231Z" fill="#E6E7E8"/>
<path d="M598.065 149.231H518.622V158.456H598.065V149.231Z" fill="#838383"/>
<path d="M507.312 165.053H493.954V174.279H507.312V165.053Z" fill="#838383"/>
<path d="M571.994 165.053H518.622V174.279H571.994V165.053Z" fill="#E6E7E8"/>
<path d="M505.635 230.06H416.286V240.626H505.635V230.06Z" fill="#838383"/>
<path d="M574.86 230.06H519.987V240.626H574.86V230.06Z" fill="#E6E7E8"/>
<path d="M505.616 248.153H433.076V258.719H505.616V248.153Z" fill="#E6E7E8"/>
<path d="M599.879 248.153H519.987V258.719H599.879V248.153Z" fill="#E6E7E8"/>
<path d="M505.616 266.264H469.345V276.83H505.616V266.264Z" fill="#E6E7E8"/>
<path d="M614.991 266.264H519.987V276.83H614.991V266.264Z" fill="#E6E7E8"/>
<path d="M505.615 284.375H492.024V294.941H505.615V284.375Z" fill="#E6E7E8"/>
<path d="M620.958 284.375H519.987V294.941H620.958V284.375Z" fill="#838383"/>
<path d="M587.808 302.468H519.987V313.034H587.808V302.468Z" fill="#E6E7E8"/>
<path d="M554.366 207.139L547.034 204.458V200.882L554.366 198.2L561.697 195.518V199.773C560.371 200.292 559.065 200.775 557.797 201.24C556.53 201.704 555.184 202.187 553.897 202.706L557.797 204.064L561.697 205.423V209.75L554.366 207.139Z" fill="#E6E7E8"/>
<path d="M563.862 210.948L572.559 190.441L577.122 191.692L568.367 212.289L563.862 210.948Z" fill="#E6E7E8"/>
<path d="M586.599 198.254C589.036 199.148 591.493 200.042 593.931 200.936V204.511L586.599 207.193L579.267 209.875V205.495L583.167 204.136L587.067 202.777C585.741 202.259 584.434 201.776 583.167 201.311C581.899 200.846 580.554 200.363 579.267 199.845V195.572L586.599 198.254Z" fill="#E6E7E8"/>
<path d="M412.64 79.8081C412.637 79.3937 412.737 78.9841 412.932 78.6103C413.102 78.2294 413.362 77.8876 413.693 77.609C414.017 77.3339 414.394 77.1157 414.804 76.9654C415.243 76.8001 415.714 76.7151 416.189 76.7151C416.638 76.7189 417.082 76.804 417.495 76.9654C417.897 77.12 418.267 77.3378 418.587 77.609C418.899 77.8982 419.15 78.2376 419.328 78.6103C419.508 78.988 419.601 79.3958 419.601 79.8081C419.601 80.2262 419.508 80.6398 419.328 81.0239C419.145 81.3779 418.894 81.6988 418.587 81.9714C417.935 82.5298 417.081 82.8481 416.189 82.8654C415.714 82.8654 415.243 82.7804 414.804 82.6151C414.39 82.4716 414.012 82.2526 413.693 81.9714C413.368 81.7091 413.109 81.386 412.932 81.0239C412.736 80.6438 412.637 80.2283 412.64 79.8081V79.8081ZM412.64 90.285C412.649 89.8756 412.747 89.472 412.927 89.0976C413.108 88.7231 413.368 88.3854 413.693 88.1038C414.011 87.8169 414.389 87.5919 414.804 87.4423C415.245 87.2831 415.715 87.2042 416.189 87.2099C416.636 87.2075 417.081 87.2865 417.495 87.4423C417.902 87.5965 418.273 87.8211 418.587 88.1038C418.899 88.3863 419.15 88.7198 419.328 89.0871C419.508 89.4681 419.601 89.8788 419.601 90.2939C419.601 90.709 419.508 91.1197 419.328 91.5007C419.15 91.8627 418.899 92.1904 418.587 92.4662C418.267 92.7374 417.897 92.9552 417.495 93.1098C417.081 93.2656 416.636 93.3446 416.189 93.3422C415.715 93.3479 415.245 93.269 414.804 93.1098C414.394 92.9595 414.017 92.7413 413.693 92.4662C413.363 92.2007 413.103 91.8707 412.932 91.5007C412.735 91.1213 412.635 90.7054 412.64 90.285V90.285Z" fill="#E6E7E8"/>
<path d="M526.5 380.633C527.271 380.67 528.033 380.468 528.665 380.061C529.211 379.686 529.464 378.899 529.464 377.683V372.141C529.463 371.223 529.594 370.31 529.854 369.423C530.097 368.598 530.507 367.821 531.063 367.135C531.631 366.475 532.35 365.938 533.169 365.562C534.145 365.145 535.213 364.943 536.289 364.972H540.677V370.729H539.136C538.784 370.697 538.43 370.753 538.11 370.892C537.791 371.03 537.519 371.246 537.323 371.515C536.985 372.059 536.817 372.678 536.835 373.303V378.953C536.857 379.668 536.718 380.381 536.426 381.045C536.191 381.558 535.861 382.029 535.451 382.439C535.092 382.792 534.661 383.078 534.183 383.279C533.801 383.464 533.384 383.579 532.955 383.619V383.619C533.379 383.691 533.791 383.811 534.183 383.977C534.66 384.165 535.091 384.438 535.451 384.781C536.389 385.734 536.886 386.984 536.835 388.267V393.935C536.811 394.561 536.98 395.181 537.323 395.723C537.516 395.996 537.788 396.215 538.107 396.356C538.427 396.498 538.783 396.557 539.136 396.527H540.677V402.284H536.289C535.213 402.313 534.145 402.111 533.169 401.694C532.35 401.318 531.631 400.781 531.063 400.121C530.511 399.432 530.101 398.657 529.854 397.833C529.595 396.94 529.464 396.021 529.464 395.097V389.555C529.532 389.132 529.495 388.7 529.357 388.291C529.218 387.883 528.982 387.508 528.665 387.195C528.033 386.787 527.271 386.586 526.5 386.623V380.633Z" fill="#E6E7E8"/>
<path d="M593.853 386.587C593.076 386.55 592.308 386.752 591.669 387.159C591.355 387.475 591.121 387.85 590.983 388.257C590.845 388.665 590.806 389.096 590.869 389.519V395.061C590.87 395.985 590.739 396.904 590.479 397.797C590.241 398.624 589.83 399.401 589.27 400.085C588.713 400.754 587.991 401.293 587.164 401.659C586.189 402.076 585.12 402.278 584.044 402.249H579.657V396.438H581.217C581.567 396.465 581.919 396.404 582.235 396.262C582.551 396.121 582.819 395.903 583.011 395.633C583.354 395.092 583.523 394.472 583.498 393.846V388.178C583.479 387.468 583.618 386.762 583.908 386.104C584.146 385.583 584.483 385.105 584.902 384.692C585.257 384.351 585.681 384.077 586.15 383.887C586.55 383.724 586.969 383.604 587.398 383.53V383.53C586.963 383.488 586.54 383.373 586.15 383.19C585.677 382.989 585.253 382.703 584.902 382.35C584.479 381.946 584.142 381.473 583.908 380.955C583.616 380.291 583.477 379.579 583.498 378.863V373.196C583.517 372.57 583.348 371.952 583.011 371.408C582.816 371.141 582.547 370.928 582.232 370.789C581.916 370.651 581.565 370.593 581.217 370.621H579.657V364.972H584.044C585.12 364.943 586.189 365.145 587.164 365.562C587.991 365.927 588.713 366.466 589.27 367.135C589.834 367.817 590.245 368.595 590.479 369.423C590.74 370.31 590.871 371.223 590.869 372.141V377.683C590.804 378.109 590.842 378.543 590.98 378.954C591.119 379.365 591.354 379.743 591.669 380.061C592.308 380.469 593.076 380.67 593.853 380.633V386.587Z" fill="#E6E7E8"/>
<path d="M434.008 73.7053L430.564 73.7041L430.563 77.3301L429.177 77.3296L429.18 70.0636L430.398 68.874L429.012 68.8735L429.013 67.6555L434.011 67.6573L434.01 68.8753L430.566 68.8741L430.564 73.5361L431.587 72.4865L434.009 72.4873L434.008 73.7053ZM440.499 72.4896L439.112 73.8751L439.113 71.2851L437.055 71.2844L437.053 77.3324L435.667 77.3319L435.67 70.0659L437.056 70.0664L437.055 71.1164L438.064 70.0668L439.296 70.0672L440.499 71.2856L440.499 72.4896ZM447.006 76.118L445.801 77.3355L443.211 77.3346L442.008 76.1162L442.01 71.2862L443.214 70.0686L445.804 70.0695L447.008 71.288L447.006 76.118ZM445.634 76.1175L445.636 71.2875L443.396 71.2867L443.394 76.1167L445.634 76.1175ZM454.296 77.3386L452.924 77.3381L452.926 71.2901L450.686 71.2893L450.684 77.3373L449.298 77.3368L449.301 70.0708L450.687 70.0713L450.686 71.1213L451.709 70.0716L453.095 70.0721L454.298 71.2906L454.296 77.3386ZM460.185 70.0747L458.966 71.2922L458.098 71.2919L458.096 76.1219L459.818 76.1225L459.817 77.3405L457.927 77.3399L456.71 76.1214L456.712 71.2914L454.99 71.2908L456.209 70.0733L456.713 70.0734L456.713 69.0514L458.1 67.6659L458.099 70.0739L460.185 70.0747ZM464.4 72.4982L463.209 73.7158L460.269 73.7147L461.46 72.4971L464.4 72.4982ZM470.74 77.3445L466.946 77.3431L465.742 76.1247L465.744 71.2947L466.949 70.0771L469.539 70.078L470.742 71.2965L470.741 73.7185L469.537 74.922L467.297 74.9212L468.529 73.7177L469.369 73.718L469.37 71.296L467.13 71.2952L467.128 76.1252L470.74 76.1265L470.74 77.3445ZM477.702 77.3469L476.33 77.3464L476.332 71.2984L474.092 71.2976L474.09 77.3456L472.704 77.3452L472.707 70.0792L474.093 70.0796L474.093 71.1296L475.115 70.08L476.501 70.0805L477.704 71.2989L477.702 77.3469ZM484.904 77.3495L483.532 77.349L483.532 76.313L482.524 77.3487L481.11 77.3482L479.906 76.1297L479.908 71.2997L481.113 70.0822L483.535 70.083L483.536 67.661L484.908 66.2895L484.904 77.3495ZM483.532 76.131L483.535 70.251L482.47 71.3006L481.294 71.3002L481.292 76.1302L483.532 76.131ZM495.983 76.1355L494.764 77.353L489.934 77.3513L489.938 70.0853L491.156 68.8957L489.77 68.8953L489.771 67.6773L494.769 67.679L495.986 68.8975L495.983 76.1355ZM494.597 76.135L494.6 68.897L491.324 68.8958L491.32 77.1838L492.343 76.1342L494.597 76.135ZM503.279 77.3561L499.485 77.3547L498.281 76.1363L498.283 71.3063L499.488 70.0887L502.078 70.0897L503.281 71.3081L503.28 73.7301L502.076 74.9337L499.836 74.9329L501.068 73.7293L501.908 73.7296L501.909 71.3076L499.669 71.3068L499.667 76.1368L503.279 76.1381L503.279 77.3561ZM509.906 75.4264L507.959 77.3578L506.825 77.3573L504.894 75.4247L504.896 69.7547L506.268 71.1411L506.266 75.2011L507.399 76.2936L508.52 75.202L508.522 71.142L509.908 69.7564L509.906 75.4264ZM516.841 77.3609L513.047 77.3596L511.844 76.1411L511.846 71.3111L513.05 70.0936L515.64 70.0945L516.844 71.3129L516.843 73.7349L515.638 74.9385L513.398 74.9377L514.631 73.7341L515.471 73.7344L515.472 71.3124L513.232 71.3116L513.23 76.1416L516.842 76.1429L516.841 77.3609ZM521.381 77.3626L520.009 77.3621L518.806 76.1436L518.81 67.5056L520.196 66.1341L520.192 76.1441L521.382 76.1446L521.381 77.3626ZM527.56 76.1468L526.356 77.3643L523.766 77.3634L522.562 76.145L522.565 71.315L523.769 70.0974L526.359 70.0983L527.563 71.3168L527.56 76.1468ZM526.188 76.1463L526.191 71.3163L523.951 71.3155L523.948 76.1455L526.188 76.1463ZM534.893 76.1494L533.702 77.367L531.266 77.3661L531.265 80.9921L529.879 80.9916L529.883 70.0996L531.269 70.1001L531.269 71.1501L532.277 70.1004L533.705 70.101L534.895 71.3194L534.893 76.1494ZM533.507 76.1489L533.509 71.3189L531.269 71.3181L531.266 77.1981L532.275 76.1484L533.507 76.1489ZM542.038 77.3699L538.244 77.3686L537.041 76.1501L537.043 71.3201L538.248 70.1026L540.838 70.1035L542.041 71.3219L542.04 73.7439L540.836 74.9475L538.596 74.9467L539.828 73.7431L540.668 73.7434L540.669 71.3214L538.429 71.3206L538.427 76.1506L542.039 76.1519L542.038 77.3699ZM548.835 72.5284L547.448 73.9139L547.449 71.3239L545.391 71.3231L545.389 77.3711L544.003 77.3706L544.006 70.1046L545.392 70.1051L545.391 71.1551L546.4 70.1055L547.632 70.1059L548.835 71.3244L548.835 72.5284ZM557.565 77.3755L556.179 77.375L556.18 76.339L555.143 77.3746L553.757 77.3741L552.554 76.1557L552.555 73.7477L553.759 72.5301L556.041 72.5309L554.893 73.7345L553.927 73.7342L553.926 76.1562L556.18 76.157L556.182 71.327L552.374 71.3256L553.41 70.108L556.364 70.1091L557.568 71.3275L557.565 77.3755ZM564.901 77.3781L563.529 77.3776L563.532 71.3296L561.292 71.3288L561.289 77.3768L559.903 77.3763L559.906 70.1103L561.292 70.1108L561.292 71.1608L562.314 70.1112L563.7 70.1117L564.904 71.3301L564.901 77.3781ZM572.103 77.3807L570.731 77.3802L570.731 76.3442L569.723 77.3798L568.309 77.3793L567.105 76.1609L567.108 71.3309L568.312 70.1133L570.734 70.1142L570.735 67.6922L572.108 66.3207L572.103 77.3807ZM570.731 76.1622L570.734 70.2822L569.67 71.3318L568.494 71.3314L568.491 76.1614L570.731 76.1622ZM438.844 92.2471L436.785 94.3323L435.427 94.3318L433.832 92.7073L432.249 94.3307L430.877 94.3302L428.82 92.2435L428.823 84.6555L430.209 84.656L430.206 91.852L431.466 93.1544L431.844 93.1546L433.132 91.853L433.135 84.657L434.521 84.6575L434.518 91.8535L435.806 93.156L436.198 93.1561L437.458 91.8966L437.461 84.6586L438.847 84.6591L438.844 92.2471ZM445.959 94.3356L442.165 94.3342L440.961 93.1158L440.964 88.2858L442.168 87.0682L444.758 87.0692L445.962 88.2876L445.961 90.7096L444.756 91.9132L442.516 91.9124L443.749 90.7088L444.589 90.7091L444.59 88.2871L442.35 88.2863L442.347 93.1163L445.959 93.1176L445.959 94.3356ZM453.02 93.1201L451.801 94.3377L449.379 94.3368L449.38 93.1328L447.993 94.5043L447.997 84.5643L449.384 83.1088L449.382 87.9388L450.25 87.0711L451.804 87.0717L453.022 88.2901L453.02 93.1201ZM451.634 93.1196L451.636 88.2896L449.382 88.2888L449.38 93.1188L451.634 93.1196ZM463.942 93.124L462.724 94.3416L457.894 94.3399L457.897 87.0739L459.116 85.8843L457.73 85.8838L457.73 84.6658L462.728 84.6676L463.946 85.886L463.942 93.124ZM462.556 93.1235L462.56 85.8855L459.284 85.8844L459.28 94.1724L460.302 93.1227L462.556 93.1235ZM471.238 94.3446L467.444 94.3433L466.241 93.1248L466.243 88.2948L467.447 87.0773L470.037 87.0782L471.241 88.2966L471.24 90.7186L470.035 91.9222L467.795 91.9214L469.028 90.7178L469.868 90.7181L469.869 88.2961L467.629 88.2953L467.627 93.1253L471.239 93.1266L471.238 94.3446ZM477.307 88.2988L473.849 88.2976L473.849 89.5016L475.753 89.5022L476.97 90.7207L476.969 93.1287L475.751 94.3462L472.461 94.3451L472.461 93.1271L475.583 93.1282L475.584 90.7202L473.68 90.7195L472.463 89.5011L472.463 88.2971L473.682 87.0795L476.076 87.0804L477.307 88.2988ZM480.075 85.8918L478.689 85.8913L478.689 84.5053L480.075 84.5058L480.075 85.8918ZM480.071 94.3478L478.685 94.3473L478.688 88.1453L480.074 86.7458L480.071 94.3478ZM487.484 94.3504L486.112 94.3499L486.114 88.3019L483.874 88.3011L483.872 94.3491L482.486 94.3487L482.489 87.0827L483.875 87.0831L483.874 88.1331L484.897 87.0835L486.283 87.084L487.486 88.3024L487.484 94.3504ZM495.039 87.0871L493.834 88.3047L490.894 88.3037L490.892 93.1337L493.132 93.1345L493.134 89.5085L494.52 89.509L494.517 96.775L493.312 97.9785L489.336 97.9771L490.527 96.7735L493.131 96.7745L493.132 93.2885L491.746 94.352L490.724 94.3516L489.506 93.1332L489.508 88.3032L490.727 87.0856L495.039 87.0871ZM501.467 94.3554L497.673 94.3541L496.469 93.1356L496.471 88.3056L497.676 87.0881L500.266 87.089L501.469 88.3074L501.468 90.7294L500.264 91.933L498.024 91.9322L499.256 90.7286L500.096 90.7289L500.097 88.3069L497.857 88.3061L497.855 93.1361L501.467 93.1374L501.467 94.3554ZM508.263 89.5139L506.877 90.8994L506.878 88.3094L504.82 88.3086L504.817 94.3566L503.431 94.3561L503.434 87.0901L504.82 87.0906L504.82 88.1406L505.828 87.091L507.06 87.0914L508.264 88.3099L508.263 89.5139Z" fill="black"/>
</svg>
