<svg width="771" height="319" viewBox="0 0 771 319" fill="none" xmlns="http://www.w3.org/2000/svg">
<path d="M139.982 32.454C85.6203 51.551 112.529 134.058 55.1265 143.563C-11.3338 154.567 -1.87639 72.1817 6.60255 0.842663L767.242 -6.54843L770.556 190.001C767.144 162.468 757.753 143.949 725.886 149.24C659.927 160.193 722.298 302.79 656.358 291.203C611.435 283.31 630.42 209.479 584.763 207.062C530.6 204.195 568.926 302.354 517.075 316.559C442.727 336.927 512.191 157.165 434.586 152.15C359.179 147.277 396.9 312.09 323.588 295.175C255.669 279.505 342.11 154.239 274.069 139.015C204.914 123.541 224.126 259.332 153.028 261.808C54.0509 265.255 232.197 0.0594888 139.982 32.454Z" fill="white"/>
</svg>
